<?xml version="1.0" encoding="utf-8"?>
<!-- Generator: Adobe Illustrator 16.0.0, SVG Export Plug-In . SVG Version: 6.00 Build 0)  -->
<!DOCTYPE svg PUBLIC "-//W3C//DTD SVG 1.1//EN" "http://www.w3.org/Graphics/SVG/1.1/DTD/svg11.dtd">
<svg version="1.1" id="Layer_1" xmlns="http://www.w3.org/2000/svg" xmlns:xlink="http://www.w3.org/1999/xlink" x="0px" y="0px"
	 width="704.82px" height="119.044px" viewBox="0 0 704.82 119.044" enable-background="new 0 0 704.82 119.044"
	 xml:space="preserve">
<polygon display="none" fill-rule="evenodd" clip-rule="evenodd" fill="#ADBC72" points="740.036,77.828 356.041,-102.485 
	-26.833,78.53 356.595,263.106 "/>
<g>
	<path fill-rule="evenodd" clip-rule="evenodd" fill="#FFFFFF" d="M69.914,49.298C59.43,42.453,52.695,35.187,52.643,30.877
		c-0.179-1.423-0.077-3.405,0.299-4.046c0.404-0.222,1.539,0.109,2.527,0.485c30.196,11.491,35.572,21.633,46.887,56.285
		c2.641-25.24,33.041-50.917,60.015-60.96C213.904,2.649,208.797,14.566,233.215,0c-22.458,31.154-34.358,21.236-81.381,42.962
		c-25.594,12.395-37.342,29.318-49.95,76.082C83.649,65.484,88.286,67.047,69.914,49.298"/>
	<path fill-rule="evenodd" clip-rule="evenodd" fill="#FFFFFF" d="M66.761,67.392c3.958-1.123,4.684-1.886,5.824-2.455
		c-4.613-9.963-11.78-15.083-21.502-15.358c-8.492,0.856-9.901,7.475-4.56,14.886C53.724,71.034,59.586,69.054,66.761,67.392"/>
	<path fill-rule="evenodd" clip-rule="evenodd" fill="#FFFFFF" d="M132.159,70.626c-3.957-1.123-4.684-1.886-5.824-2.455
		c4.612-9.963,11.78-15.083,21.502-15.358c8.492,0.856,9.901,7.475,4.56,14.886C145.196,74.269,139.335,72.288,132.159,70.626"/>
	<path fill-rule="evenodd" clip-rule="evenodd" fill="#FFFFFF" d="M32.305,65.883c-3.337-9.846-2.708-16.699-0.833-20.558
		c0.779-5.278-2.568-6.38-6.144-4.016c-11.911,27.55,23.217,61.45,54.586,36.387C56.727,87.344,41.723,83.406,32.305,65.883"/>
	<path fill-rule="evenodd" clip-rule="evenodd" fill="#FFFFFF" d="M170.387,64.823c3.337-9.846,2.708-16.699,0.832-20.557
		c-0.779-5.278,2.568-6.38,6.144-4.017c11.911,27.55-23.217,61.45-54.586,36.388C145.964,86.283,160.969,82.345,170.387,64.823"/>
	<path fill-rule="evenodd" clip-rule="evenodd" fill="#FFFFFF" d="M187.254,54.82c8.877-6.536,14.055-14.855,13.211-22.968
		c-5.994,7.119-11.429,11.057-16.304,11.813C186.83,47.202,187.917,49.925,187.254,54.82"/>
	<path fill-rule="evenodd" clip-rule="evenodd" fill="#FFFFFF" d="M13.683,54.28C4.806,47.744-0.371,39.424,0.473,31.311
		C6.466,38.43,11.9,42.368,16.775,43.125C14.107,46.661,13.021,49.384,13.683,54.28"/>
	<path fill-rule="evenodd" clip-rule="evenodd" fill="#FFFFFF" d="M181.593,77.54c8.688-5.688,18.147-13.532,19.344-20.878
		c-5.054,5.019-9.107,7.381-13.82,7.088C187.865,70.832,183.247,75.318,181.593,77.54"/>
	<path fill-rule="evenodd" clip-rule="evenodd" fill="#FFFFFF" d="M19.345,76.999C10.657,71.311,1.197,63.467,0,56.12
		c5.054,5.019,9.108,7.382,13.821,7.088C13.072,70.292,17.69,74.778,19.345,76.999"/>
	<path fill-rule="evenodd" clip-rule="evenodd" fill="#FFFFFF" d="M9.033,79.589c9.633,13.709,21.014,19.301,34.143,16.775
		C34.455,90.811,23.074,85.218,9.033,79.589"/>
	<path fill-rule="evenodd" clip-rule="evenodd" fill="#FFFFFF" d="M195.267,79.344c-9.633,13.71-21.014,19.302-34.143,16.776
		C169.845,90.565,181.226,84.974,195.267,79.344"/>
</g>
<g>
	<g>
		<rect x="247.31" y="66.557" fill-rule="evenodd" clip-rule="evenodd" fill="#373B24" width="453.983" height="3.736"/>
	</g>
	<g>
		<path fill="#373B24" d="M325.11,87.314c-0.235,0.097-0.4,0.24-0.496,0.433c-0.096,0.191-0.149,0.438-0.16,0.735
			c-0.011,0.299-0.016,0.651-0.016,1.057v19.136h-1.632l-12.832-18.368v15.584c0,0.405,0.005,0.752,0.016,1.04
			s0.064,0.528,0.16,0.72c0.096,0.192,0.261,0.331,0.496,0.416c0.234,0.086,0.565,0.128,0.992,0.128v0.32h-5.152v-0.32
			c0.448,0,0.789-0.042,1.024-0.128c0.234-0.085,0.405-0.218,0.512-0.399c0.106-0.182,0.165-0.416,0.176-0.704
			s0.016-0.646,0.016-1.072V88.515c-0.128-0.277-0.235-0.507-0.32-0.688c-0.086-0.181-0.182-0.319-0.288-0.415
			c-0.107-0.097-0.24-0.16-0.4-0.192c-0.16-0.032-0.4-0.048-0.72-0.048v-0.32h4.224c1.962,2.966,3.957,5.878,5.984,8.736
			c2.026,2.858,4.021,5.771,5.984,8.735V89.539c0-0.427-0.005-0.789-0.016-1.089c-0.011-0.298-0.064-0.544-0.16-0.735
			c-0.096-0.192-0.267-0.331-0.512-0.416c-0.246-0.085-0.592-0.128-1.04-0.128v-0.32h5.184v0.32
			C325.686,87.171,325.344,87.219,325.11,87.314z"/>
		<path fill="#373B24" d="M349.302,102.034c-0.448,1.355-1.104,2.545-1.968,3.568c-0.864,1.024-1.925,1.83-3.184,2.416
			c-1.259,0.587-2.699,0.88-4.32,0.88c-1.643,0-3.094-0.293-4.352-0.88c-1.259-0.586-2.32-1.387-3.184-2.4
			c-0.864-1.013-1.515-2.202-1.952-3.567c-0.438-1.365-0.656-2.816-0.656-4.353c0-1.898,0.288-3.552,0.864-4.96
			c0.576-1.407,1.344-2.586,2.304-3.535s2.048-1.659,3.264-2.129c1.216-0.469,2.453-0.698,3.712-0.688
			c1.258,0.011,2.496,0.251,3.712,0.72c1.216,0.47,2.304,1.174,3.264,2.112s1.728,2.117,2.304,3.536
			c0.576,1.419,0.864,3.066,0.864,4.943C349.974,99.234,349.75,100.68,349.302,102.034z M346.693,94.291
			c-0.267-1.163-0.688-2.213-1.264-3.152c-0.576-0.938-1.323-1.706-2.24-2.304c-0.917-0.598-2.038-0.896-3.36-0.896
			c-1.344,0-2.475,0.299-3.392,0.896c-0.917,0.598-1.664,1.365-2.24,2.304c-0.576,0.939-0.992,1.984-1.248,3.136
			c-0.256,1.152-0.384,2.294-0.384,3.424c0,1.132,0.128,2.278,0.384,3.44c0.256,1.163,0.672,2.208,1.248,3.136
			c0.576,0.929,1.322,1.686,2.24,2.272c0.917,0.587,2.048,0.88,3.392,0.88c1.322,0,2.448-0.293,3.376-0.88s1.68-1.35,2.256-2.288
			c0.576-0.938,0.992-1.984,1.248-3.136c0.256-1.152,0.384-2.293,0.384-3.425C347.094,96.59,346.96,95.454,346.693,94.291z"/>
		<path fill="#373B24" d="M353.494,108.515v-0.32c0.362,0,0.656-0.01,0.88-0.031c0.224-0.021,0.4-0.08,0.528-0.177
			c0.128-0.096,0.213-0.25,0.256-0.464c0.042-0.213,0.064-0.512,0.064-0.896V88.738c0-0.384-0.021-0.683-0.064-0.896
			c-0.043-0.213-0.128-0.368-0.256-0.464c-0.128-0.097-0.304-0.154-0.528-0.176c-0.224-0.021-0.518-0.032-0.88-0.032v-0.32h6.208
			v0.32c-0.363,0-0.656,0.011-0.88,0.032s-0.4,0.079-0.528,0.176c-0.128,0.096-0.213,0.251-0.256,0.464
			c-0.043,0.213-0.064,0.512-0.064,0.896v17.889c0,0.384,0.021,0.683,0.064,0.896c0.042,0.214,0.128,0.368,0.256,0.464
			c0.128,0.097,0.304,0.155,0.528,0.177s0.517,0.031,0.88,0.031v0.32H353.494z"/>
		<path fill="#373B24" d="M392.292,87.555c-0.203,0.256-0.379,0.565-0.527,0.928l-7.84,20.256h-1.313l-8.256-20.191
			c-0.171-0.405-0.379-0.73-0.624-0.977c-0.245-0.245-0.592-0.378-1.04-0.399v-0.32h5.664v0.32c-0.213,0-0.416,0.005-0.607,0.016
			c-0.192,0.011-0.353,0.054-0.48,0.128c-0.128,0.075-0.208,0.188-0.24,0.336c-0.031,0.149,0.006,0.353,0.112,0.608l6.528,16.448
			l6.016-15.744c0.234-0.598,0.288-1.035,0.16-1.313c-0.128-0.276-0.533-0.437-1.217-0.479v-0.32h4.609v0.32
			C392.81,87.171,392.496,87.299,392.292,87.555z"/>
		<path fill="#373B24" d="M409.685,108.515h-14.592v-0.32c0.66,0,1.076-0.09,1.248-0.271c0.17-0.182,0.256-0.613,0.256-1.296V88.738
			c0-0.683-0.086-1.114-0.256-1.296c-0.172-0.181-0.588-0.271-1.248-0.271v-0.32h14.271l0.031,3.296h-0.447
			c-0.107-0.811-0.357-1.307-0.752-1.488c-0.395-0.181-0.966-0.271-1.713-0.271h-6.463c-0.363,0-0.571,0.037-0.625,0.112
			c-0.053,0.074-0.08,0.282-0.08,0.624v7.327h6.496c0.342,0,0.641-0.016,0.896-0.048c0.256-0.031,0.464-0.101,0.624-0.208
			c0.16-0.106,0.282-0.267,0.368-0.479c0.085-0.213,0.148-0.501,0.191-0.864h0.416v4.832h-0.416
			c-0.043-0.384-0.106-0.683-0.191-0.896c-0.086-0.214-0.208-0.379-0.368-0.496s-0.362-0.192-0.608-0.225
			c-0.245-0.032-0.549-0.048-0.912-0.048h-6.496v8.353c0,0.191,0.059,0.336,0.177,0.432c0.116,0.096,0.256,0.155,0.416,0.176
			c0.16,0.021,0.331,0.027,0.512,0.017s0.337-0.017,0.464-0.017h5.28c0.513,0,0.954-0.026,1.328-0.08
			c0.373-0.053,0.709-0.165,1.008-0.336c0.299-0.17,0.565-0.399,0.8-0.688s0.459-0.678,0.672-1.168h0.512L409.685,108.515z"/>
		<path fill="#373B24" d="M413.781,108.194c0.319,0,0.586-0.01,0.799-0.031s0.373-0.085,0.48-0.192
			c0.106-0.106,0.182-0.267,0.225-0.48c0.042-0.213,0.063-0.501,0.063-0.863V88.738c0-0.362-0.021-0.65-0.063-0.863
			c-0.043-0.213-0.118-0.373-0.225-0.48c-0.107-0.106-0.268-0.17-0.48-0.191s-0.479-0.032-0.799-0.032v-0.32h7.424
			c1.77,0,3.387,0.219,4.848,0.656s2.715,1.104,3.76,2c1.045,0.896,1.855,2.026,2.432,3.392s0.864,2.977,0.864,4.832
			c0,1.558-0.245,3.014-0.735,4.368c-0.491,1.355-1.344,2.555-2.561,3.6c-1.237,1.067-2.624,1.804-4.16,2.208
			c-1.535,0.406-3.104,0.608-4.703,0.608h-7.168V108.194z M418.068,106.211c0,0.191,0.074,0.341,0.225,0.447
			c0.148,0.107,0.33,0.188,0.543,0.24c0.214,0.054,0.428,0.086,0.641,0.097s0.373,0.016,0.48,0.016c1.557,0,2.976-0.176,4.256-0.528
			c1.279-0.352,2.367-0.906,3.264-1.664c0.896-0.757,1.589-1.728,2.08-2.912c0.49-1.184,0.736-2.607,0.736-4.271
			c0-1.579-0.235-2.949-0.705-4.112c-0.469-1.162-1.135-2.128-2-2.896c-0.863-0.769-1.908-1.339-3.135-1.712
			c-1.228-0.373-2.598-0.561-4.112-0.561c-0.384,0-0.779,0.032-1.185,0.096c-0.405,0.064-0.768,0.225-1.088,0.48V106.211z"/>
		<path fill="#373B24" d="M451.508,108.515h-14.592v-0.32c0.661,0,1.077-0.09,1.248-0.271s0.256-0.613,0.256-1.296V88.738
			c0-0.683-0.085-1.114-0.256-1.296c-0.171-0.181-0.587-0.271-1.248-0.271v-0.32h14.272l0.031,3.296h-0.447
			c-0.107-0.811-0.357-1.307-0.752-1.488c-0.396-0.181-0.967-0.271-1.713-0.271h-6.464c-0.362,0-0.571,0.037-0.624,0.112
			c-0.053,0.074-0.08,0.282-0.08,0.624v7.327h6.496c0.342,0,0.641-0.016,0.896-0.048c0.256-0.031,0.463-0.101,0.623-0.208
			c0.16-0.106,0.283-0.267,0.369-0.479c0.084-0.213,0.148-0.501,0.191-0.864h0.416v4.832h-0.416
			c-0.043-0.384-0.107-0.683-0.191-0.896c-0.086-0.214-0.209-0.379-0.369-0.496s-0.362-0.192-0.607-0.225
			c-0.246-0.032-0.549-0.048-0.912-0.048h-6.496v8.353c0,0.191,0.059,0.336,0.176,0.432s0.256,0.155,0.416,0.176
			c0.16,0.021,0.331,0.027,0.512,0.017c0.182-0.011,0.337-0.017,0.465-0.017h5.279c0.513,0,0.955-0.026,1.328-0.08
			c0.373-0.053,0.709-0.165,1.008-0.336c0.299-0.17,0.565-0.399,0.801-0.688c0.234-0.288,0.459-0.678,0.672-1.168h0.512
			L451.508,108.515z"/>
		<path fill="#373B24" d="M474.9,108.515v-0.32c0.341,0,0.619-0.016,0.832-0.048s0.379-0.101,0.496-0.208
			c0.117-0.106,0.197-0.261,0.24-0.464c0.042-0.202,0.063-0.485,0.063-0.848v-17.28l-8.192,19.168h-1.088l-8.191-18.752v16.032
			c0,0.405,0.005,0.757,0.016,1.056s0.064,0.55,0.16,0.752c0.096,0.203,0.256,0.353,0.48,0.448c0.224,0.096,0.56,0.144,1.008,0.144
			v0.32h-5.152v-0.32c0.448,0,0.795-0.048,1.04-0.144s0.416-0.24,0.513-0.433c0.096-0.191,0.148-0.437,0.159-0.735
			s0.017-0.661,0.017-1.088V88.738c0-0.384-0.027-0.683-0.08-0.896c-0.054-0.213-0.145-0.368-0.272-0.464
			c-0.128-0.097-0.304-0.154-0.528-0.176c-0.224-0.021-0.507-0.032-0.848-0.032v-0.32h4.992l7.775,17.729l7.553-17.729h4.896v0.32
			c-0.341,0-0.613,0.016-0.815,0.048c-0.203,0.032-0.357,0.102-0.465,0.208c-0.106,0.106-0.176,0.267-0.207,0.479
			c-0.032,0.214-0.049,0.491-0.049,0.832v17.889c0,0.362,0.017,0.646,0.049,0.848c0.031,0.203,0.101,0.357,0.207,0.464
			c0.107,0.107,0.262,0.176,0.465,0.208c0.202,0.032,0.475,0.048,0.815,0.048v0.32H474.9z"/>
		<path fill="#373B24" d="M509.299,108.515c-0.513-1.131-1.024-2.149-1.536-3.056c-0.512-0.907-1.066-1.755-1.664-2.544
			s-1.248-1.547-1.952-2.272c-0.704-0.725-1.504-1.482-2.399-2.271l-2.305,0.031v8.225c0,0.362,0.021,0.65,0.064,0.863
			c0.043,0.214,0.117,0.374,0.224,0.48c0.106,0.107,0.267,0.171,0.479,0.192c0.214,0.021,0.491,0.031,0.832,0.031v0.32h-5.823v-0.32
			c0.319,0,0.581-0.016,0.784-0.048c0.202-0.032,0.356-0.101,0.464-0.208c0.106-0.106,0.176-0.261,0.208-0.464
			c0.031-0.202,0.048-0.485,0.048-0.848V88.738c0-0.341-0.017-0.618-0.048-0.832c-0.032-0.213-0.102-0.373-0.208-0.479
			c-0.107-0.106-0.262-0.176-0.464-0.208c-0.203-0.032-0.465-0.048-0.784-0.048v-0.32h7.647c0.939,0,1.84,0.102,2.705,0.304
			c0.863,0.203,1.626,0.528,2.287,0.977s1.189,1.035,1.584,1.76c0.395,0.726,0.592,1.621,0.592,2.688
			c0,0.811-0.148,1.52-0.447,2.128c-0.299,0.607-0.704,1.119-1.217,1.535c-0.512,0.416-1.099,0.753-1.76,1.009
			s-1.354,0.438-2.08,0.544c0.619,0.512,1.12,0.949,1.504,1.312c0.385,0.363,0.721,0.71,1.008,1.04
			c0.289,0.331,0.571,0.672,0.849,1.024c0.276,0.352,0.608,0.763,0.992,1.231c0.427,0.534,0.832,1.137,1.216,1.809
			s0.741,1.301,1.072,1.888c0.33,0.587,0.635,1.083,0.912,1.488c0.276,0.405,0.543,0.607,0.8,0.607v0.32H509.299z M499.443,96.866
			h1.536c0.769,0,1.521-0.068,2.256-0.208c0.736-0.138,1.403-0.384,2-0.735c0.597-0.353,1.077-0.827,1.44-1.424
			c0.362-0.598,0.544-1.345,0.544-2.24c0-0.789-0.149-1.44-0.448-1.952s-0.699-0.912-1.199-1.2
			c-0.502-0.288-1.072-0.484-1.713-0.592c-0.64-0.106-1.291-0.16-1.951-0.16c-0.192,0-0.406,0-0.641,0
			c-0.213,0-0.438,0.011-0.672,0.032c-0.235,0.021-0.453,0.075-0.656,0.16s-0.367,0.203-0.496,0.352V96.866z"/>
		<path fill="#373B24" d="M517.523,108.515v-0.32c0.361,0,0.656-0.01,0.879-0.031c0.225-0.021,0.4-0.08,0.529-0.177
			c0.127-0.096,0.213-0.25,0.256-0.464c0.042-0.213,0.063-0.512,0.063-0.896V88.738c0-0.384-0.021-0.683-0.063-0.896
			c-0.043-0.213-0.129-0.368-0.256-0.464c-0.129-0.097-0.305-0.154-0.529-0.176c-0.223-0.021-0.518-0.032-0.879-0.032v-0.32h6.207
			v0.32c-0.362,0-0.655,0.011-0.879,0.032c-0.225,0.021-0.4,0.079-0.529,0.176c-0.127,0.096-0.213,0.251-0.256,0.464
			s-0.063,0.512-0.063,0.896v17.889c0,0.384,0.021,0.683,0.063,0.896c0.043,0.214,0.129,0.368,0.256,0.464
			c0.129,0.097,0.305,0.155,0.529,0.177c0.224,0.021,0.517,0.031,0.879,0.031v0.32H517.523z"/>
		<path fill="#373B24" d="M528.691,108.083c-0.107,0.096-0.16,0.229-0.16,0.399h-0.385l-0.16-4.672l0.064-0.096h0.288
			c0.384,0.917,0.901,1.653,1.552,2.208s1.339,0.955,2.064,1.2c0.725,0.245,1.461,0.347,2.208,0.304s1.424-0.224,2.032-0.544
			c0.607-0.32,1.098-0.763,1.472-1.328c0.373-0.565,0.56-1.232,0.56-2c0-0.917-0.25-1.685-0.752-2.304
			c-0.501-0.619-1.125-1.179-1.871-1.681c-0.748-0.501-1.563-0.98-2.449-1.439c-0.885-0.459-1.701-0.971-2.447-1.536
			c-0.747-0.565-1.371-1.227-1.872-1.984c-0.501-0.757-0.752-1.701-0.752-2.832c0-0.832,0.176-1.572,0.528-2.224
			c0.352-0.65,0.815-1.211,1.392-1.68c0.576-0.47,1.231-0.827,1.968-1.072s1.488-0.368,2.256-0.368c0.448,0,0.891,0.037,1.328,0.112
			s0.869,0.176,1.297,0.304c0.042,0.021,0.159,0.059,0.352,0.112c0.191,0.054,0.4,0.111,0.624,0.176s0.432,0.123,0.624,0.176
			c0.191,0.054,0.299,0.08,0.32,0.08c0.361-0.042,0.564-0.245,0.607-0.607h0.352c0.086,0.789,0.166,1.6,0.24,2.432
			s0.091,1.643,0.049,2.432h-0.353c-0.277-0.811-0.693-1.482-1.248-2.016c-0.556-0.533-1.168-0.938-1.84-1.216
			c-0.673-0.277-1.371-0.416-2.097-0.416c-0.703,0-1.35,0.128-1.936,0.384c-0.587,0.256-1.066,0.64-1.439,1.152
			c-0.374,0.512-0.561,1.141-0.561,1.888c0,0.576,0.154,1.083,0.464,1.52c0.31,0.438,0.677,0.838,1.104,1.2
			c0.555,0.448,1.141,0.864,1.76,1.248s1.248,0.747,1.889,1.088l-0.225-0.096c0.704,0.363,1.381,0.758,2.031,1.184
			c0.651,0.428,1.232,0.907,1.744,1.44c0.513,0.533,0.918,1.136,1.217,1.808s0.447,1.445,0.447,2.32
			c0,0.917-0.203,1.733-0.607,2.448c-0.406,0.715-0.934,1.317-1.584,1.808c-0.651,0.491-1.382,0.864-2.192,1.12
			s-1.632,0.384-2.464,0.384c-0.896,0-1.75-0.106-2.561-0.319c-0.811-0.214-1.643-0.438-2.495-0.673
			C528.925,107.928,528.796,107.986,528.691,108.083z"/>
		<path fill="#373B24" d="M559.714,108.307c-1.228,0.395-2.512,0.592-3.856,0.592c-1.707,0-3.228-0.271-4.56-0.815
			c-1.334-0.544-2.47-1.307-3.408-2.288c-0.939-0.981-1.654-2.16-2.145-3.536s-0.736-2.896-0.736-4.561
			c0-1.6,0.257-3.088,0.769-4.464c0.513-1.376,1.243-2.57,2.192-3.584c0.949-1.013,2.09-1.802,3.424-2.368
			c1.333-0.564,2.82-0.848,4.464-0.848c1.13,0,2.261,0.128,3.392,0.384c0.129,0.043,0.293,0.091,0.496,0.145s0.41,0.111,0.625,0.176
			c0.213,0.064,0.416,0.117,0.607,0.16s0.352,0.063,0.48,0.063c0.404,0,0.66-0.191,0.768-0.575h0.352c0,0.341,0,0.735,0,1.184
			c0,0.427-0.006,0.864-0.016,1.312c-0.012,0.448-0.032,0.886-0.064,1.313c-0.031,0.427-0.091,0.8-0.176,1.12
			c-0.746-1.216-1.578-2.139-2.496-2.769c-0.917-0.629-2.111-0.943-3.584-0.943c-1.43,0-2.666,0.261-3.712,0.784
			c-1.046,0.522-1.903,1.221-2.575,2.096c-0.673,0.875-1.174,1.898-1.504,3.072c-0.332,1.173-0.496,2.41-0.496,3.712
			c0,1.344,0.17,2.603,0.512,3.775c0.341,1.174,0.858,2.192,1.552,3.057c0.692,0.863,1.567,1.547,2.624,2.048
			c1.056,0.501,2.309,0.752,3.76,0.752c0.512,0,1.066-0.011,1.664-0.032c0.598-0.021,1.189-0.08,1.775-0.176
			c0.588-0.096,1.146-0.245,1.681-0.448c0.533-0.202,1.013-0.485,1.44-0.848l0.127,0.544
			C562.066,107.256,560.941,107.912,559.714,108.307z"/>
		<path fill="#373B24" d="M585.234,87.171c-0.32,0-0.565,0.091-0.736,0.271c-0.17,0.182-0.287,0.4-0.352,0.656
			s-0.096,0.533-0.096,0.832s0,0.565,0,0.8v11.2c0,2.581-0.709,4.555-2.129,5.92c-1.418,1.365-3.407,2.048-5.967,2.048
			c-2.582,0-4.576-0.692-5.984-2.08c-1.408-1.386-2.112-3.37-2.112-5.952V88.738c0-0.469-0.054-0.848-0.159-1.136
			c-0.107-0.288-0.438-0.432-0.992-0.432h-0.48v-0.32h5.952v0.32c-0.342,0-0.614,0.011-0.815,0.032
			c-0.203,0.021-0.363,0.085-0.48,0.191c-0.117,0.107-0.197,0.268-0.24,0.48s-0.064,0.501-0.064,0.863v12.192
			c0,1.963,0.453,3.515,1.36,4.656s2.384,1.712,4.433,1.712c1.877,0,3.332-0.533,4.367-1.601c1.035-1.066,1.553-2.527,1.553-4.384
			V89.73c0-0.405,0-0.768,0-1.088s-0.049-0.587-0.145-0.8s-0.262-0.379-0.496-0.496s-0.576-0.176-1.023-0.176v-0.32h5.088v0.32
			H585.234z"/>
		<path fill="#373B24" d="M605.202,108.515h-14.433v-0.32c0.342,0,0.613-0.016,0.816-0.048s0.357-0.101,0.464-0.208
			c0.106-0.106,0.177-0.261,0.208-0.464c0.032-0.202,0.049-0.485,0.049-0.848V88.738c0-0.341-0.017-0.618-0.049-0.832
			c-0.031-0.213-0.102-0.373-0.208-0.479s-0.261-0.176-0.464-0.208s-0.475-0.048-0.816-0.048v-0.32h5.889v0.32
			c-0.342,0-0.619,0.016-0.832,0.048c-0.214,0.032-0.379,0.102-0.496,0.208s-0.197,0.262-0.24,0.464
			c-0.043,0.203-0.064,0.485-0.064,0.848v17.633c0,0.191,0.059,0.336,0.177,0.432c0.116,0.096,0.256,0.155,0.416,0.176
			c0.159,0.021,0.331,0.027,0.512,0.017s0.336-0.017,0.464-0.017h4.672c0.576,0,1.088-0.021,1.537-0.063
			c0.447-0.043,0.842-0.145,1.184-0.305c0.341-0.16,0.645-0.404,0.912-0.735c0.266-0.331,0.527-0.773,0.783-1.328l0.416,0.096
			L605.202,108.515z"/>
	</g>
	<g>
		<path fill="#373B24" d="M255.208,54.791c0,1.346,0.299,2.173,0.9,2.484c0.6,0.313,1.476,0.469,2.628,0.469v0.936h-17.856v-0.936
			c1.199-0.048,2.088-0.217,2.664-0.504c0.576-0.289,0.864-1.128,0.864-2.521v-41.4c0-1.296-0.313-2.124-0.936-2.484
			c-0.624-0.36-1.488-0.515-2.592-0.468V9.431h19.944c2.208,0,4.464,0.156,6.768,0.468c2.304,0.313,4.392,0.936,6.264,1.872
			s3.408,2.257,4.608,3.96c1.199,1.705,1.8,3.924,1.8,6.661c0,1.728-0.349,3.265-1.044,4.608c-0.696,1.344-1.62,2.52-2.772,3.527
			c-1.152,1.008-2.484,1.849-3.996,2.521c-1.512,0.673-3.06,1.177-4.644,1.512c1.536,1.057,2.939,2.364,4.212,3.925
			c1.271,1.56,2.436,3.203,3.492,4.932c1.056,1.728,2.04,3.444,2.952,5.147c0.911,1.704,1.751,3.24,2.52,4.608
			c0.767,1.367,1.5,2.473,2.196,3.313c0.695,0.84,1.379,1.26,2.052,1.26v0.936h-13.104c-1.584-4.223-3.481-8.137-5.688-11.736
			c-2.208-3.6-4.968-6.936-8.28-10.008l-2.952,0.072V54.791z M257.439,32.039c1.68,0,3.228-0.107,4.644-0.323
			c1.415-0.216,2.639-0.647,3.672-1.296c1.032-0.648,1.836-1.56,2.412-2.736c0.576-1.176,0.864-2.724,0.864-4.645
			c0-3.023-0.828-5.22-2.484-6.588c-1.656-1.368-3.924-2.052-6.804-2.052c-0.96,0-1.836,0.084-2.628,0.252
			c-0.792,0.168-1.429,0.708-1.908,1.62v15.768H257.439z"/>
		<path fill="#373B24" d="M307.839,58.68h-18.36v-0.936c0.624-0.048,1.176-0.096,1.656-0.145c0.479-0.047,0.875-0.168,1.188-0.359
			c0.312-0.191,0.54-0.48,0.684-0.865c0.144-0.383,0.216-0.936,0.216-1.655v-41.4c0-0.72-0.084-1.284-0.252-1.692
			c-0.169-0.408-0.408-0.695-0.72-0.864c-0.313-0.167-0.709-0.275-1.188-0.324c-0.48-0.047-1.033-0.072-1.656-0.072V9.431h18.36
			v0.936c-0.624,0.048-1.177,0.097-1.656,0.144c-0.48,0.048-0.876,0.169-1.188,0.36c-0.313,0.192-0.54,0.48-0.684,0.864
			c-0.144,0.385-0.216,0.936-0.216,1.656v41.4c0,0.721,0.083,1.285,0.252,1.693c0.167,0.408,0.407,0.695,0.72,0.863
			c0.312,0.169,0.708,0.277,1.188,0.324c0.479,0.049,1.032,0.072,1.656,0.072V58.68z"/>
		<path fill="#373B24" d="M312.23,58.896l0.504-13.823h0.864c0.528,2.112,1.44,3.876,2.736,5.291
			c1.296,1.417,2.772,2.496,4.428,3.24c1.656,0.745,3.372,1.152,5.148,1.225c1.775,0.072,3.395-0.156,4.86-0.685
			c1.464-0.527,2.675-1.332,3.636-2.412c0.959-1.079,1.44-2.436,1.44-4.067c0-1.775-0.588-3.24-1.764-4.393
			c-1.177-1.152-2.628-2.171-4.356-3.06c-1.728-0.888-3.625-1.765-5.688-2.628c-2.064-0.864-3.96-1.908-5.688-3.133
			c-1.728-1.224-3.18-2.746-4.356-4.571c-1.177-1.823-1.764-4.151-1.764-6.984c0-2.495,0.443-4.656,1.332-6.48
			c0.888-1.823,2.112-3.323,3.672-4.5c1.559-1.175,3.359-2.052,5.4-2.628c2.04-0.576,4.212-0.864,6.516-0.864
			c1.104,0,2.184,0.084,3.24,0.252c1.055,0.168,2.112,0.396,3.168,0.684c0.096,0.048,0.396,0.133,0.9,0.252
			c0.504,0.12,1.032,0.252,1.584,0.396c0.551,0.144,1.056,0.277,1.512,0.396c0.456,0.12,0.708,0.18,0.756,0.18
			c0.864-0.095,1.32-0.551,1.368-1.368h1.152l-0.504,12.528h-0.864c-0.336-1.584-1.069-2.963-2.196-4.14
			c-1.128-1.175-2.448-2.111-3.96-2.808c-1.512-0.695-3.085-1.127-4.716-1.296c-1.632-0.167-3.145-0.047-4.536,0.36
			c-1.393,0.408-2.532,1.141-3.42,2.196c-0.889,1.057-1.332,2.448-1.332,4.176c0,1.584,0.6,2.905,1.8,3.96
			c1.199,1.057,2.688,2.029,4.464,2.916c1.775,0.889,3.708,1.789,5.796,2.7c2.088,0.913,4.02,2.017,5.796,3.312
			c1.775,1.297,3.264,2.905,4.464,4.824c1.199,1.921,1.8,4.297,1.8,7.129c0,2.208-0.409,4.2-1.224,5.976
			c-0.817,1.776-2.088,3.36-3.816,4.752c-1.44,1.151-3,2.028-4.68,2.628c-1.681,0.6-3.409,0.996-5.184,1.188
			c-1.776,0.191-3.576,0.204-5.4,0.037c-1.825-0.17-3.576-0.469-5.256-0.9c-0.144-0.049-0.48-0.132-1.008-0.252
			c-0.529-0.119-1.104-0.252-1.728-0.396c-0.624-0.145-1.188-0.264-1.692-0.359s-0.804-0.145-0.9-0.145
			c-0.673,0.145-1.056,0.576-1.152,1.296H312.23z"/>
		<path fill="#373B24" d="M392.726,53.352c-2.447,2.209-5.016,3.828-7.704,4.86c-2.688,1.031-5.688,1.548-9,1.548
			c-3.937,0-7.524-0.564-10.764-1.691c-3.24-1.128-6.024-2.772-8.352-4.933c-2.329-2.16-4.129-4.8-5.4-7.92
			c-1.272-3.12-1.908-6.696-1.908-10.728c0-3.889,0.623-7.44,1.872-10.656c1.248-3.216,3.012-5.964,5.292-8.245
			c2.279-2.279,5.027-4.043,8.244-5.292c3.215-1.248,6.768-1.872,10.655-1.872c2.736,0,5.447,0.432,8.137,1.296
			c0.145,0.048,0.479,0.156,1.008,0.324c0.527,0.169,1.092,0.336,1.691,0.504c0.6,0.168,1.152,0.324,1.656,0.468
			s0.804,0.216,0.9,0.216c0.527-0.047,0.936-0.227,1.225-0.54c0.287-0.312,0.479-0.708,0.575-1.188h1.08l0.072,12.96
			c-0.048,0.048-0.409,0.168-1.08,0.36c-1.249-2.881-3.192-5.149-5.832-6.805c-2.641-1.656-5.544-2.484-8.712-2.484
			c-2.881,0-5.292,0.601-7.236,1.8c-1.943,1.201-3.504,2.772-4.68,4.717c-1.177,1.943-2.016,4.129-2.52,6.552
			c-0.504,2.424-0.757,4.86-0.757,7.309c0,2.545,0.335,5.028,1.009,7.451c0.671,2.425,1.68,4.621,3.023,6.588
			c1.344,1.969,2.988,3.637,4.932,5.004c1.944,1.369,4.213,2.269,6.805,2.701c3.07,0.528,5.915,0.432,8.531-0.289
			c2.616-0.72,4.908-1.99,6.877-3.815L392.726,53.352z"/>
	</g>
	<g>
		<path fill="#373B24" d="M562.837,53.352c-2.447,2.209-5.016,3.828-7.704,4.86c-2.688,1.031-5.688,1.548-9,1.548
			c-3.937,0-7.524-0.564-10.764-1.691c-3.24-1.128-6.024-2.772-8.353-4.933s-4.129-4.8-5.399-7.92
			c-1.272-3.12-1.908-6.696-1.908-10.728c0-3.889,0.623-7.44,1.872-10.656c1.248-3.216,3.012-5.964,5.292-8.245
			c2.279-2.279,5.027-4.043,8.244-5.292c3.215-1.248,6.768-1.872,10.655-1.872c2.736,0,5.447,0.432,8.137,1.296
			c0.145,0.048,0.479,0.156,1.008,0.324c0.527,0.169,1.092,0.336,1.691,0.504c0.6,0.168,1.152,0.324,1.656,0.468
			s0.804,0.216,0.9,0.216c0.527-0.047,0.936-0.227,1.225-0.54c0.287-0.312,0.479-0.708,0.575-1.188h1.08l0.072,12.96
			c-0.048,0.048-0.409,0.168-1.08,0.36c-1.249-2.881-3.192-5.149-5.832-6.805c-2.641-1.656-5.544-2.484-8.712-2.484
			c-2.881,0-5.292,0.601-7.236,1.8c-1.943,1.201-3.504,2.772-4.68,4.717c-1.177,1.943-2.016,4.129-2.52,6.552
			c-0.504,2.424-0.757,4.86-0.757,7.309c0,2.545,0.335,5.028,1.009,7.451c0.671,2.425,1.68,4.621,3.023,6.588
			c1.344,1.969,2.988,3.637,4.932,5.004c1.944,1.369,4.213,2.269,6.805,2.701c3.07,0.528,5.915,0.432,8.531-0.289
			c2.616-0.72,4.908-1.99,6.877-3.815L562.837,53.352z"/>
		<path fill="#373B24" d="M615.037,44.424c-1.151,3.121-2.808,5.82-4.967,8.1c-2.16,2.281-4.777,4.057-7.849,5.328
			c-3.072,1.271-6.505,1.908-10.296,1.908c-3.841,0-7.297-0.625-10.368-1.872c-3.072-1.247-5.688-3.012-7.849-5.292
			c-2.159-2.279-3.815-4.992-4.967-8.137c-1.152-3.143-1.729-6.588-1.729-10.331c0-3.792,0.563-7.26,1.691-10.404
			c1.128-3.144,2.772-5.856,4.933-8.136c2.16-2.279,4.775-4.043,7.849-5.292c3.07-1.248,6.551-1.872,10.439-1.872
			c3.84,0,7.295,0.637,10.367,1.908c3.072,1.272,5.676,3.037,7.813,5.292c2.135,2.257,3.78,4.969,4.932,8.137
			c1.152,3.168,1.729,6.624,1.729,10.368C616.765,37.871,616.189,41.305,615.037,44.424z M604.669,27.324
			c-0.385-2.424-1.08-4.656-2.088-6.696c-1.008-2.041-2.377-3.745-4.104-5.113s-3.913-2.052-6.552-2.052
			c-2.689,0-4.896,0.684-6.624,2.052s-3.097,3.072-4.104,5.113c-1.008,2.04-1.704,4.272-2.088,6.696
			c-0.385,2.424-0.576,4.691-0.576,6.804c0,2.159,0.191,4.44,0.576,6.84c0.384,2.401,1.08,4.633,2.088,6.696
			c1.008,2.064,2.377,3.769,4.104,5.111c1.728,1.345,3.935,2.016,6.624,2.016c2.639,0,4.824-0.671,6.552-2.016
			c1.728-1.343,3.097-3.047,4.104-5.111c1.008-2.063,1.703-4.309,2.088-6.732c0.383-2.424,0.576-4.691,0.576-6.804
			S605.052,29.748,604.669,27.324z"/>
		<path fill="#373B24" d="M657.733,13.895c0-1.392-0.288-2.34-0.864-2.844s-1.512-0.731-2.808-0.684V9.431h13.176v0.936
			c-0.673,0.048-1.212,0.133-1.62,0.252c-0.408,0.121-0.732,0.313-0.972,0.576c-0.241,0.264-0.409,0.612-0.504,1.044
			c-0.097,0.432-0.144,1.008-0.144,1.728v45.361h-6.769c-0.192-0.193-0.313-0.337-0.36-0.433l-26.064-37.8v32.76
			c0,0.816,0.048,1.477,0.145,1.98c0.096,0.504,0.288,0.9,0.576,1.188c0.288,0.288,0.684,0.48,1.188,0.576
			c0.504,0.097,1.141,0.145,1.908,0.145v0.863h-13.68v-0.863c0.768-0.048,1.379-0.132,1.836-0.252
			c0.455-0.119,0.816-0.324,1.08-0.612s0.443-0.672,0.54-1.152c0.096-0.479,0.144-1.127,0.144-1.944V14.111
			c0-1.008-0.313-1.896-0.936-2.664c-0.625-0.767-1.465-1.127-2.52-1.08V9.431h14.039c3.695,5.809,7.464,11.497,11.305,17.065
			c3.84,5.568,7.607,11.256,11.304,17.063V13.895z"/>
		<path fill="#373B24" d="M671.628,58.896l0.504-13.823h0.863c0.528,2.112,1.44,3.876,2.736,5.291
			c1.297,1.417,2.771,2.496,4.428,3.24c1.656,0.745,3.372,1.152,5.148,1.225c1.775,0.072,3.395-0.156,4.859-0.685
			c1.465-0.527,2.676-1.332,3.637-2.412c0.959-1.079,1.439-2.436,1.439-4.067c0-1.775-0.588-3.24-1.764-4.393
			c-1.177-1.152-2.628-2.171-4.355-3.06c-1.729-0.888-3.625-1.765-5.688-2.628c-2.064-0.864-3.96-1.908-5.688-3.133
			c-1.728-1.224-3.18-2.746-4.355-4.571c-1.177-1.823-1.764-4.151-1.764-6.984c0-2.495,0.443-4.656,1.332-6.48
			c0.887-1.823,2.111-3.323,3.672-4.5c1.559-1.175,3.359-2.052,5.4-2.628c2.039-0.576,4.211-0.864,6.516-0.864
			c1.104,0,2.184,0.084,3.24,0.252c1.055,0.168,2.111,0.396,3.168,0.684c0.096,0.048,0.396,0.133,0.899,0.252
			c0.505,0.12,1.032,0.252,1.584,0.396s1.056,0.277,1.513,0.396c0.455,0.12,0.707,0.18,0.756,0.18
			c0.863-0.095,1.319-0.551,1.367-1.368h1.152l-0.504,12.528h-0.863c-0.337-1.584-1.069-2.963-2.197-4.14
			c-1.128-1.175-2.447-2.111-3.959-2.808c-1.513-0.695-3.086-1.127-4.717-1.296c-1.632-0.167-3.145-0.047-4.535,0.36
			c-1.393,0.408-2.533,1.141-3.42,2.196c-0.889,1.057-1.332,2.448-1.332,4.176c0,1.584,0.6,2.905,1.799,3.96
			c1.199,1.057,2.688,2.029,4.465,2.916c1.775,0.889,3.707,1.789,5.796,2.7c2.088,0.913,4.02,2.017,5.796,3.312
			c1.775,1.297,3.264,2.905,4.464,4.824c1.199,1.921,1.8,4.297,1.8,7.129c0,2.208-0.408,4.2-1.224,5.976
			c-0.817,1.776-2.088,3.36-3.815,4.752c-1.44,1.151-3.001,2.028-4.681,2.628c-1.681,0.6-3.409,0.996-5.185,1.188
			s-3.576,0.204-5.399,0.037c-1.825-0.17-3.576-0.469-5.256-0.9c-0.144-0.049-0.48-0.132-1.009-0.252
			c-0.528-0.119-1.104-0.252-1.728-0.396s-1.188-0.264-1.692-0.359s-0.804-0.145-0.899-0.145c-0.673,0.145-1.056,0.576-1.151,1.296
			H671.628z"/>
	</g>
	<g>
		<path fill="#373B24" d="M410.586,56.732c0,0.851,0.183,1.372,0.55,1.562c0.366,0.191,0.917,0.271,1.65,0.242v0.572h-10.824v-0.572
			c0.732-0.029,1.254-0.139,1.562-0.33c0.309-0.189,0.462-0.696,0.462-1.518V31.388c0-0.762-0.169-1.268-0.506-1.518
			c-0.337-0.248-0.857-0.344-1.562-0.285v-0.572h11.352c1.438,0,2.875,0.125,4.313,0.373c1.437,0.25,2.728,0.697,3.872,1.343
			c1.144,0.646,2.067,1.533,2.771,2.662c0.704,1.13,1.057,2.56,1.057,4.29c0,1.643-0.323,3.035-0.969,4.18s-1.503,2.068-2.573,2.771
			c-1.071,0.705-2.296,1.219-3.675,1.541s-2.787,0.483-4.224,0.483h-3.256V56.732z M412.258,43.576c2.053,0,3.586-0.44,4.598-1.319
			c1.013-0.881,1.519-2.377,1.519-4.488c0-1.848-0.462-3.256-1.386-4.225c-0.925-0.968-2.311-1.451-4.158-1.451
			c-0.382,0-0.792,0.043-1.232,0.132c-0.439,0.088-0.777,0.308-1.012,0.659v10.692H412.258z"/>
		<path fill="#373B24" d="M436.59,56.732c0,0.821,0.183,1.327,0.55,1.519c0.366,0.19,0.901,0.285,1.605,0.285v0.572h-10.912v-0.572
			c0.733-0.029,1.276-0.132,1.628-0.308c0.353-0.177,0.528-0.688,0.528-1.54V31.388c0-0.791-0.191-1.297-0.572-1.518
			c-0.381-0.22-0.909-0.314-1.584-0.285v-0.572h12.188c1.349,0,2.728,0.096,4.136,0.285c1.408,0.191,2.685,0.572,3.828,1.145
			s2.082,1.379,2.816,2.42c0.732,1.041,1.1,2.398,1.1,4.07c0,1.056-0.213,1.995-0.638,2.816c-0.426,0.82-0.99,1.539-1.694,2.155
			s-1.518,1.13-2.442,1.54c-0.924,0.411-1.869,0.719-2.838,0.924c0.938,0.646,1.797,1.445,2.574,2.398s1.488,1.958,2.134,3.014
			c0.646,1.057,1.247,2.105,1.805,3.146c0.557,1.041,1.07,1.979,1.54,2.815c0.469,0.837,0.916,1.511,1.342,2.024
			c0.425,0.514,0.843,0.77,1.254,0.77v0.572h-8.008c-0.969-2.581-2.128-4.973-3.477-7.172c-1.35-2.2-3.036-4.238-5.06-6.116
			l-1.804,0.044V56.732z M437.954,42.829c1.026,0,1.973-0.066,2.838-0.199c0.865-0.131,1.613-0.396,2.244-0.791
			c0.631-0.396,1.122-0.953,1.475-1.672c0.352-0.719,0.527-1.665,0.527-2.838c0-1.849-0.506-3.191-1.518-4.027
			s-2.398-1.254-4.158-1.254c-0.587,0-1.122,0.053-1.606,0.154c-0.483,0.104-0.873,0.434-1.165,0.99v9.637H437.954z"/>
		<path fill="#373B24" d="M484.418,50.396c-0.705,1.907-1.717,3.558-3.037,4.95c-1.319,1.393-2.918,2.479-4.795,3.256
			c-1.878,0.777-3.976,1.166-6.293,1.166c-2.347,0-4.459-0.382-6.336-1.145c-1.877-0.762-3.476-1.84-4.795-3.233
			c-1.32-1.394-2.332-3.051-3.036-4.972c-0.704-1.922-1.057-4.026-1.057-6.314c0-2.316,0.345-4.437,1.034-6.357
			c0.689-1.922,1.694-3.579,3.015-4.973c1.319-1.393,2.917-2.471,4.796-3.234c1.877-0.762,4.004-1.144,6.379-1.144
			c2.347,0,4.459,0.39,6.336,1.166c1.877,0.777,3.469,1.855,4.774,3.233c1.306,1.379,2.31,3.037,3.015,4.973
			c0.703,1.936,1.056,4.048,1.056,6.336S485.122,48.489,484.418,50.396z M478.083,39.946c-0.236-1.48-0.66-2.845-1.276-4.092
			c-0.616-1.246-1.452-2.288-2.509-3.124c-1.056-0.836-2.391-1.254-4.004-1.254c-1.643,0-2.992,0.418-4.047,1.254
			c-1.057,0.836-1.893,1.878-2.509,3.124c-0.616,1.247-1.042,2.611-1.276,4.092c-0.234,1.481-0.352,2.867-0.352,4.158
			c0,1.32,0.117,2.713,0.352,4.18s0.66,2.832,1.276,4.092c0.616,1.262,1.452,2.304,2.509,3.125c1.055,0.82,2.404,1.231,4.047,1.231
			c1.613,0,2.948-0.411,4.004-1.231c1.057-0.821,1.893-1.863,2.509-3.125c0.616-1.26,1.04-2.632,1.276-4.113
			c0.234-1.48,0.352-2.867,0.352-4.158S478.317,41.428,478.083,39.946z"/>
		<path fill="#373B24" d="M506.286,59.108h-11.352v-0.572c0.381-0.029,0.718-0.059,1.012-0.088c0.293-0.029,0.542-0.095,0.748-0.197
			c0.205-0.104,0.358-0.279,0.461-0.529c0.104-0.248,0.154-0.594,0.154-1.033V32.093c-0.968,0-1.929-0.029-2.881-0.088
			c-0.954-0.059-1.826,0.007-2.619,0.197c-0.791,0.191-1.459,0.572-2.002,1.145s-0.902,1.474-1.078,2.705h-0.703l0.088-7.039h24.947
			l0.088,7.039h-0.703c-0.176-1.231-0.535-2.133-1.078-2.705s-1.203-0.953-1.98-1.145c-0.777-0.19-1.635-0.256-2.574-0.197
			c-0.938,0.059-1.906,0.088-2.903,0.088v24.64c0,0.44,0.051,0.785,0.153,1.034c0.104,0.25,0.257,0.426,0.463,0.527
			c0.205,0.104,0.454,0.17,0.748,0.198c0.293,0.03,0.63,0.044,1.012,0.044V59.108z"/>
	</g>
</g>
</svg>
